<svg id="svg" version="1.1" xmlns="http://www.w3.org/2000/svg" xmlns:xlink="http://www.w3.org/1999/xlink" width="400" height="400" viewBox="0, 0, 400,400"><g id="svgg"><path id="path0" d="M120.800 41.598 C 120.800 41.819,119.799 42.000,118.576 42.000 C 117.196 42.000,116.447 42.152,116.600 42.400 C 116.747 42.638,116.279 42.800,115.447 42.800 C 114.677 42.800,113.928 42.992,113.783 43.227 C 113.638 43.462,113.267 43.558,112.960 43.440 C 112.619 43.309,112.388 43.494,112.368 43.913 C 112.349 44.325,112.256 44.401,112.136 44.103 C 111.901 43.520,110.797 44.003,109.579 45.221 C 109.160 45.640,108.544 45.877,108.209 45.748 C 107.874 45.620,107.600 45.714,107.600 45.957 C 107.600 46.201,107.358 46.400,107.062 46.400 C 106.766 46.400,106.198 46.760,105.800 47.200 C 105.402 47.640,104.924 48.000,104.738 48.000 C 104.552 48.000,104.071 48.315,103.669 48.700 C 103.266 49.085,102.501 49.775,101.969 50.233 C 100.867 51.180,98.000 54.371,98.000 54.649 C 98.000 54.751,97.636 55.225,97.190 55.703 C 96.745 56.181,96.463 56.788,96.565 57.053 C 96.666 57.317,96.465 57.643,96.117 57.776 C 95.770 57.910,95.603 58.136,95.746 58.280 C 95.890 58.423,95.614 58.959,95.134 59.470 C 94.654 59.982,94.410 60.400,94.592 60.400 C 94.775 60.400,94.651 60.715,94.317 61.100 C 93.462 62.085,92.262 65.453,92.581 65.969 C 92.727 66.206,92.657 66.400,92.424 66.400 C 92.182 66.400,92.000 67.259,92.000 68.400 C 92.000 69.500,91.820 70.400,91.600 70.400 C 91.334 70.400,91.200 118.733,91.200 214.600 L 91.200 358.800 92.200 358.800 C 92.750 358.800,93.200 358.620,93.200 358.400 C 93.200 358.180,93.335 358.021,93.500 358.047 C 94.308 358.175,94.821 357.957,94.590 357.584 C 94.426 357.319,94.676 357.254,95.280 357.406 C 95.914 357.565,96.532 357.380,97.147 356.846 C 97.652 356.408,98.591 355.934,99.233 355.793 C 99.875 355.652,100.400 355.360,100.400 355.145 C 100.400 354.929,100.580 354.864,100.800 355.000 C 101.020 355.136,101.200 355.027,101.200 354.757 C 101.200 354.487,101.312 354.379,101.450 354.516 C 101.732 354.799,104.619 353.417,104.986 352.823 C 105.118 352.610,105.499 352.540,105.832 352.668 C 106.175 352.799,106.686 352.574,107.006 352.150 C 107.319 351.738,107.580 351.557,107.587 351.749 C 107.594 351.941,107.888 351.859,108.240 351.567 C 108.593 351.274,109.125 350.999,109.423 350.955 C 109.721 350.912,110.541 350.589,111.244 350.238 C 111.947 349.887,112.765 349.600,113.061 349.600 C 113.358 349.600,113.601 349.465,113.603 349.300 C 113.607 348.889,115.591 348.000,116.503 348.000 C 116.912 348.000,117.136 347.820,117.000 347.600 C 116.864 347.380,117.129 347.200,117.589 347.200 C 118.049 347.200,118.528 346.931,118.654 346.602 C 118.781 346.274,119.049 346.107,119.251 346.232 C 119.682 346.498,122.000 345.545,122.000 345.102 C 122.000 344.936,122.360 344.800,122.800 344.800 C 123.240 344.800,123.600 344.620,123.600 344.400 C 123.600 344.180,123.960 344.000,124.400 344.000 C 124.840 344.000,125.200 343.820,125.200 343.600 C 125.200 343.380,125.549 343.200,125.976 343.200 C 126.403 343.200,126.864 343.020,127.000 342.800 C 127.136 342.580,127.687 342.400,128.224 342.400 C 128.841 342.400,129.200 342.171,129.200 341.776 C 129.200 341.424,129.392 341.271,129.641 341.425 C 130.159 341.745,134.000 340.038,134.000 339.489 C 134.000 339.283,134.264 339.216,134.587 339.340 C 134.910 339.464,135.281 339.393,135.411 339.183 C 135.541 338.972,135.910 338.800,136.232 338.800 C 136.554 338.800,137.523 338.333,138.385 337.762 C 139.248 337.191,140.144 336.842,140.377 336.986 C 140.610 337.130,140.800 337.087,140.800 336.892 C 140.800 336.493,144.781 334.545,145.279 334.700 C 145.456 334.755,145.600 334.620,145.600 334.400 C 145.600 334.180,145.960 334.000,146.400 334.000 C 146.840 334.000,147.200 333.809,147.200 333.576 C 147.200 333.343,147.368 333.256,147.572 333.383 C 147.777 333.509,148.053 333.438,148.185 333.224 C 148.317 333.010,148.692 332.937,149.017 333.062 C 149.431 333.221,149.537 333.101,149.369 332.665 C 149.181 332.173,149.350 332.080,150.165 332.228 C 150.734 332.331,151.200 332.232,151.200 332.008 C 151.200 331.784,151.448 331.600,151.751 331.600 C 152.054 331.600,152.524 331.332,152.796 331.004 C 153.068 330.677,153.435 330.498,153.611 330.607 C 153.787 330.716,153.995 330.614,154.073 330.381 C 154.151 330.147,154.481 329.903,154.807 329.839 C 155.612 329.679,156.855 329.219,157.695 328.771 C 158.077 328.567,158.662 328.400,158.995 328.400 C 159.328 328.400,159.600 328.220,159.600 328.000 C 159.600 327.780,159.793 327.600,160.029 327.600 C 160.264 327.600,160.719 327.338,161.040 327.017 C 161.361 326.696,161.917 326.547,162.277 326.685 C 162.715 326.853,162.835 326.781,162.642 326.468 C 162.458 326.170,162.644 326.000,163.153 326.000 C 163.593 326.000,164.049 325.845,164.166 325.655 C 164.283 325.465,165.239 325.075,166.290 324.787 C 167.340 324.500,168.629 323.935,169.154 323.532 C 169.679 323.129,170.349 322.800,170.644 322.800 C 170.939 322.800,171.757 322.449,172.462 322.021 C 173.167 321.592,173.892 321.334,174.075 321.446 C 174.257 321.559,174.513 321.370,174.645 321.028 C 174.776 320.685,175.033 320.496,175.214 320.609 C 175.396 320.721,175.658 320.630,175.796 320.407 C 175.934 320.183,176.397 320.000,176.824 320.000 C 177.251 320.000,177.600 319.820,177.600 319.600 C 177.600 319.380,178.016 319.200,178.525 319.200 C 179.033 319.200,179.836 318.840,180.308 318.400 C 180.780 317.960,181.489 317.594,181.883 317.587 C 182.277 317.580,182.942 317.316,183.359 317.000 C 183.776 316.684,184.271 316.520,184.459 316.636 C 184.647 316.752,184.800 316.547,184.800 316.181 C 184.800 315.768,185.017 315.598,185.371 315.733 C 185.685 315.854,186.155 315.695,186.416 315.381 C 186.677 315.066,187.070 314.920,187.290 315.056 C 187.510 315.191,187.804 315.141,187.945 314.943 C 188.193 314.594,190.330 313.486,190.867 313.429 C 191.013 313.413,191.268 313.265,191.433 313.100 C 191.598 312.935,192.063 312.800,192.467 312.800 C 192.870 312.800,193.200 312.620,193.200 312.400 C 193.200 312.180,193.483 312.000,193.829 312.000 C 194.174 312.000,194.729 311.728,195.061 311.396 C 195.393 311.064,195.830 310.895,196.032 311.020 C 196.235 311.145,196.400 311.057,196.400 310.824 C 196.400 310.591,196.831 310.400,197.357 310.400 C 197.884 310.400,198.402 310.172,198.509 309.893 C 198.733 309.310,202.400 309.448,202.400 310.040 C 202.400 310.238,202.670 310.400,203.000 310.400 C 203.330 310.400,203.600 310.580,203.600 310.800 C 203.600 311.020,203.960 311.200,204.400 311.200 C 204.840 311.200,205.200 311.380,205.200 311.600 C 205.200 311.820,205.560 312.000,206.000 312.000 C 206.440 312.000,206.800 312.158,206.800 312.350 C 206.800 312.543,207.318 312.804,207.952 312.930 C 208.585 313.057,209.382 313.440,209.723 313.780 C 210.064 314.121,210.705 314.400,211.148 314.400 C 211.591 314.400,212.059 314.572,212.189 314.783 C 212.319 314.993,212.690 315.064,213.013 314.940 C 213.379 314.799,213.600 314.956,213.600 315.357 C 213.600 315.776,213.948 316.000,214.600 316.000 C 215.150 316.000,215.600 316.136,215.600 316.302 C 215.600 316.801,217.976 317.695,218.632 317.443 C 218.976 317.311,219.136 317.380,218.999 317.601 C 218.866 317.816,219.352 318.244,220.079 318.552 C 224.416 320.387,225.600 320.974,225.600 321.292 C 225.600 321.487,225.788 321.531,226.018 321.389 C 226.247 321.247,226.882 321.424,227.429 321.782 C 227.975 322.140,228.625 322.308,228.873 322.155 C 229.132 321.995,229.213 322.055,229.064 322.296 C 228.712 322.867,229.940 323.393,232.282 323.675 C 232.548 323.707,232.672 323.883,232.559 324.067 C 232.371 324.371,232.954 324.565,233.700 324.447 C 233.865 324.421,234.000 324.580,234.000 324.800 C 234.000 325.020,234.360 325.200,234.800 325.200 C 235.240 325.200,235.600 325.380,235.600 325.600 C 235.600 325.820,235.960 326.000,236.400 326.000 C 236.840 326.000,237.200 326.191,237.200 326.424 C 237.200 326.657,237.390 326.730,237.623 326.586 C 237.856 326.442,238.752 326.791,239.615 327.362 C 240.477 327.933,241.466 328.400,241.811 328.400 C 242.157 328.400,243.016 328.707,243.720 329.082 C 244.424 329.457,245.135 329.727,245.300 329.682 C 245.465 329.637,245.600 329.762,245.600 329.961 C 245.600 330.284,247.399 331.131,248.692 331.418 C 248.963 331.478,249.470 331.813,249.820 332.163 C 250.170 332.513,250.938 332.914,251.528 333.055 C 252.118 333.195,252.825 333.488,253.100 333.704 C 253.375 333.921,253.600 333.958,253.600 333.787 C 253.600 333.616,253.915 333.753,254.300 334.091 C 255.023 334.726,256.772 335.419,257.300 335.279 C 257.465 335.236,257.600 335.380,257.600 335.600 C 257.600 335.820,257.947 336.000,258.371 336.000 C 258.796 336.000,259.413 336.270,259.743 336.600 C 260.073 336.930,260.546 337.200,260.795 337.200 C 261.044 337.200,261.146 337.364,261.022 337.565 C 260.898 337.766,261.112 337.883,261.498 337.825 C 261.884 337.768,262.830 338.117,263.600 338.602 C 264.370 339.087,265.143 339.491,265.317 339.500 C 265.956 339.534,268.218 340.547,268.850 341.083 C 269.207 341.386,269.657 341.594,269.850 341.547 C 270.042 341.499,270.650 341.658,271.200 341.900 C 271.750 342.142,272.785 342.578,273.500 342.868 C 274.215 343.158,274.800 343.531,274.800 343.698 C 274.800 343.864,275.160 344.000,275.600 344.000 C 276.040 344.000,276.400 344.180,276.400 344.400 C 276.400 344.620,276.628 344.800,276.906 344.800 C 277.184 344.800,278.489 345.324,279.806 345.963 C 281.123 346.603,282.560 347.188,283.000 347.263 C 283.440 347.339,284.091 347.715,284.447 348.100 C 284.803 348.485,285.488 348.800,285.971 348.800 C 286.453 348.800,286.736 348.980,286.600 349.200 C 286.464 349.420,286.723 349.600,287.176 349.600 C 287.629 349.600,288.000 349.792,288.000 350.027 C 288.000 350.266,288.338 350.347,288.766 350.211 C 289.188 350.077,289.641 350.143,289.774 350.358 C 290.131 350.936,292.407 352.000,293.285 352.000 C 293.704 352.000,293.936 352.180,293.800 352.400 C 293.664 352.620,293.923 352.800,294.376 352.800 C 294.829 352.800,295.200 352.960,295.200 353.155 C 295.200 353.351,295.830 353.629,296.600 353.774 C 297.370 353.918,298.000 354.219,298.000 354.442 C 298.000 354.665,298.180 354.736,298.400 354.600 C 298.620 354.464,298.800 354.557,298.800 354.806 C 298.800 355.055,299.115 355.197,299.500 355.122 C 299.885 355.046,300.588 355.400,301.061 355.909 C 301.677 356.569,301.981 356.686,302.130 356.317 C 302.280 355.942,302.346 355.934,302.368 356.287 C 302.386 356.556,302.670 356.671,303.000 356.545 C 303.330 356.418,303.600 356.514,303.600 356.757 C 303.600 357.001,303.789 357.200,304.019 357.200 C 304.250 357.200,305.184 357.560,306.094 358.000 C 307.005 358.440,307.987 358.800,308.276 358.800 C 308.710 358.800,308.802 333.385,308.799 214.000 C 308.797 134.360,308.644 69.200,308.459 69.200 C 308.274 69.200,308.123 68.475,308.123 67.589 C 308.123 66.702,307.915 65.532,307.662 64.989 C 307.408 64.445,307.040 63.595,306.844 63.100 C 305.893 60.696,304.189 57.683,303.886 57.870 C 303.699 57.986,303.580 57.837,303.621 57.540 C 303.766 56.481,303.593 56.001,303.100 56.100 C 302.815 56.157,302.613 55.822,302.630 55.320 C 302.646 54.836,302.511 54.531,302.330 54.643 C 302.148 54.756,302.000 54.547,302.000 54.181 C 302.000 53.743,301.787 53.596,301.379 53.753 C 301.038 53.884,300.854 53.837,300.970 53.649 C 301.086 53.461,300.375 52.454,299.390 51.412 C 298.406 50.369,297.597 49.670,297.594 49.858 C 297.591 50.046,297.417 49.930,297.208 49.600 C 297.000 49.270,296.675 49.000,296.486 49.000 C 296.297 49.000,295.828 48.685,295.443 48.300 C 295.058 47.915,294.576 47.600,294.371 47.600 C 294.167 47.600,294.000 47.340,294.000 47.023 C 294.000 46.657,293.701 46.504,293.180 46.604 C 292.723 46.692,292.265 46.513,292.144 46.199 C 291.673 44.971,284.204 42.000,281.588 42.000 C 280.347 42.000,279.648 41.846,279.798 41.604 C 279.959 41.343,252.876 41.206,200.421 41.202 C 147.348 41.198,120.800 41.330,120.800 41.598 " stroke="none" fill="#f44434" fill-rule="evenodd"></path><path id="path1" d="M119.000 41.600 C 117.806 41.904,117.807 41.906,119.300 41.953 C 120.125 41.979,120.800 41.820,120.800 41.600 C 120.800 41.159,120.732 41.159,119.000 41.600 M279.552 41.712 C 279.745 41.905,280.419 41.998,281.051 41.919 C 282.109 41.787,282.081 41.759,280.700 41.568 C 279.840 41.449,279.350 41.510,279.552 41.712 M115.211 42.319 C 114.197 42.483,112.296 43.600,113.031 43.600 C 113.256 43.600,113.611 43.433,113.820 43.229 C 114.029 43.024,114.830 42.799,115.600 42.729 C 116.370 42.658,116.820 42.501,116.600 42.379 C 116.380 42.258,115.755 42.231,115.211 42.319 M287.400 43.600 C 288.501 44.073,288.892 44.073,288.600 43.600 C 288.464 43.380,287.958 43.213,287.476 43.228 C 286.631 43.255,286.629 43.269,287.400 43.600 M289.776 44.613 C 290.204 44.936,290.834 45.199,291.176 45.198 C 291.519 45.196,291.284 44.926,290.654 44.598 C 289.204 43.841,288.766 43.849,289.776 44.613 M108.584 45.227 C 108.148 45.932,108.607 46.030,109.429 45.409 C 110.106 44.897,110.117 44.824,109.524 44.813 C 109.152 44.806,108.729 44.992,108.584 45.227 M292.088 46.065 C 292.174 46.321,292.559 46.576,292.944 46.633 C 293.507 46.716,293.552 46.624,293.173 46.168 C 292.606 45.484,291.871 45.414,292.088 46.065 M294.600 47.683 C 295.040 47.935,295.619 48.425,295.887 48.771 C 296.270 49.265,296.377 49.281,296.387 48.844 C 296.403 48.176,295.236 47.226,294.400 47.225 C 293.983 47.224,294.044 47.364,294.600 47.683 M302.276 55.169 C 302.531 56.146,303.048 56.569,303.363 56.060 C 303.483 55.866,303.238 55.396,302.818 55.017 C 302.089 54.357,302.065 54.364,302.276 55.169 M93.641 61.252 C 93.350 61.909,93.222 62.556,93.356 62.690 C 93.490 62.824,93.600 62.693,93.600 62.398 C 93.600 62.104,93.882 61.552,94.226 61.171 C 94.570 60.791,94.699 60.385,94.511 60.269 C 94.323 60.153,93.932 60.595,93.641 61.252 M91.515 69.200 C 91.418 69.860,91.487 70.400,91.669 70.400 C 91.851 70.400,92.000 69.860,92.000 69.200 C 92.000 68.540,91.930 68.000,91.845 68.000 C 91.760 68.000,91.612 68.540,91.515 69.200 M201.200 310.000 C 201.200 310.220,201.470 310.400,201.800 310.400 C 202.130 310.400,202.400 310.220,202.400 310.000 C 202.400 309.780,202.130 309.600,201.800 309.600 C 201.470 309.600,201.200 309.780,201.200 310.000 M226.624 321.787 C 227.051 322.110,227.580 322.375,227.800 322.375 C 228.020 322.375,227.851 322.110,227.424 321.787 C 226.996 321.464,226.467 321.200,226.247 321.200 C 226.027 321.200,226.196 321.464,226.624 321.787 M169.376 323.422 C 168.612 324.034,168.613 324.038,169.400 323.676 C 169.840 323.474,170.470 323.208,170.800 323.086 C 171.318 322.893,171.315 322.859,170.776 322.832 C 170.434 322.814,169.804 323.080,169.376 323.422 M230.800 323.522 C 230.800 323.956,232.823 324.910,233.118 324.615 C 233.237 324.497,233.113 324.400,232.843 324.400 C 232.564 324.400,232.477 324.185,232.641 323.900 C 232.799 323.625,232.786 323.529,232.612 323.686 C 232.437 323.843,231.958 323.792,231.547 323.572 C 231.136 323.352,230.800 323.329,230.800 323.522 M242.000 328.800 C 242.000 329.020,242.405 329.197,242.900 329.194 C 243.628 329.189,243.685 329.114,243.200 328.800 C 242.424 328.299,242.000 328.299,242.000 328.800 M258.200 336.293 C 258.640 336.403,259.125 336.692,259.278 336.935 C 259.431 337.178,259.696 337.237,259.867 337.067 C 260.279 336.655,259.206 336.002,258.200 336.053 L 257.400 336.093 258.200 336.293 M138.976 337.387 C 138.549 337.710,138.380 337.975,138.600 337.975 C 138.820 337.975,139.349 337.710,139.776 337.387 C 140.204 337.064,140.373 336.800,140.153 336.800 C 139.933 336.800,139.404 337.064,138.976 337.387 M282.615 347.624 C 282.896 348.079,284.000 348.127,284.000 347.685 C 284.000 347.512,283.636 347.343,283.191 347.309 C 282.747 347.276,282.487 347.418,282.615 347.624 M104.800 353.000 C 104.392 353.491,104.420 353.600,104.951 353.600 C 105.308 353.600,105.600 353.330,105.600 353.000 C 105.600 352.670,105.532 352.400,105.449 352.400 C 105.366 352.400,105.074 352.670,104.800 353.000 M302.800 356.773 C 302.800 357.223,304.363 357.770,304.697 357.437 C 304.827 357.306,304.633 357.200,304.267 357.200 C 303.900 357.200,303.600 357.020,303.600 356.800 C 303.600 356.580,303.420 356.400,303.200 356.400 C 302.980 356.400,302.800 356.568,302.800 356.773 M94.600 357.600 C 94.736 357.820,94.627 358.000,94.357 358.000 C 94.087 358.000,93.961 358.094,94.076 358.209 C 94.417 358.550,95.615 357.949,95.374 357.558 C 95.252 357.361,94.973 357.200,94.753 357.200 C 94.533 357.200,94.464 357.380,94.600 357.600 M305.200 357.991 C 305.200 358.165,305.645 358.392,306.188 358.496 C 306.731 358.599,307.094 358.552,306.994 358.390 C 306.728 357.960,305.200 357.620,305.200 357.991 " stroke="none" fill="#f84434" fill-rule="evenodd"></path><path id="path2" d="M119.000 41.600 C 117.806 41.904,117.807 41.906,119.300 41.953 C 120.125 41.979,120.800 41.820,120.800 41.600 C 120.800 41.159,120.732 41.159,119.000 41.600 M279.552 41.712 C 279.745 41.905,280.419 41.998,281.051 41.919 C 282.109 41.787,282.081 41.759,280.700 41.568 C 279.840 41.449,279.350 41.510,279.552 41.712 M115.211 42.319 C 114.197 42.483,112.296 43.600,113.031 43.600 C 113.256 43.600,113.611 43.433,113.820 43.229 C 114.029 43.024,114.830 42.799,115.600 42.729 C 116.370 42.658,116.820 42.501,116.600 42.379 C 116.380 42.258,115.755 42.231,115.211 42.319 M287.400 43.600 C 288.501 44.073,288.892 44.073,288.600 43.600 C 288.464 43.380,287.958 43.213,287.476 43.228 C 286.631 43.255,286.629 43.269,287.400 43.600 M289.776 44.613 C 290.204 44.936,290.834 45.199,291.176 45.198 C 291.519 45.196,291.284 44.926,290.654 44.598 C 289.204 43.841,288.766 43.849,289.776 44.613 M108.584 45.227 C 108.148 45.932,108.607 46.030,109.429 45.409 C 110.106 44.897,110.117 44.824,109.524 44.813 C 109.152 44.806,108.729 44.992,108.584 45.227 M292.088 46.065 C 292.174 46.321,292.559 46.576,292.944 46.633 C 293.507 46.716,293.552 46.624,293.173 46.168 C 292.606 45.484,291.871 45.414,292.088 46.065 M294.600 47.683 C 295.040 47.935,295.619 48.425,295.887 48.771 C 296.270 49.265,296.377 49.281,296.387 48.844 C 296.403 48.176,295.236 47.226,294.400 47.225 C 293.983 47.224,294.044 47.364,294.600 47.683 M302.276 55.169 C 302.531 56.146,303.048 56.569,303.363 56.060 C 303.483 55.866,303.238 55.396,302.818 55.017 C 302.089 54.357,302.065 54.364,302.276 55.169 M93.641 61.252 C 93.350 61.909,93.222 62.556,93.356 62.690 C 93.490 62.824,93.600 62.693,93.600 62.398 C 93.600 62.104,93.882 61.552,94.226 61.171 C 94.570 60.791,94.699 60.385,94.511 60.269 C 94.323 60.153,93.932 60.595,93.641 61.252 M91.515 69.200 C 91.418 69.860,91.487 70.400,91.669 70.400 C 91.851 70.400,92.000 69.860,92.000 69.200 C 92.000 68.540,91.930 68.000,91.845 68.000 C 91.760 68.000,91.612 68.540,91.515 69.200 M201.200 310.000 C 201.200 310.220,201.470 310.400,201.800 310.400 C 202.130 310.400,202.400 310.220,202.400 310.000 C 202.400 309.780,202.130 309.600,201.800 309.600 C 201.470 309.600,201.200 309.780,201.200 310.000 M226.624 321.787 C 227.051 322.110,227.580 322.375,227.800 322.375 C 228.020 322.375,227.851 322.110,227.424 321.787 C 226.996 321.464,226.467 321.200,226.247 321.200 C 226.027 321.200,226.196 321.464,226.624 321.787 M169.376 323.422 C 168.612 324.034,168.613 324.038,169.400 323.676 C 169.840 323.474,170.470 323.208,170.800 323.086 C 171.318 322.893,171.315 322.859,170.776 322.832 C 170.434 322.814,169.804 323.080,169.376 323.422 M230.800 323.522 C 230.800 323.956,232.823 324.910,233.118 324.615 C 233.237 324.497,233.113 324.400,232.843 324.400 C 232.564 324.400,232.477 324.185,232.641 323.900 C 232.799 323.625,232.786 323.529,232.612 323.686 C 232.437 323.843,231.958 323.792,231.547 323.572 C 231.136 323.352,230.800 323.329,230.800 323.522 M242.000 328.800 C 242.000 329.020,242.405 329.197,242.900 329.194 C 243.628 329.189,243.685 329.114,243.200 328.800 C 242.424 328.299,242.000 328.299,242.000 328.800 M258.200 336.293 C 258.640 336.403,259.125 336.692,259.278 336.935 C 259.431 337.178,259.696 337.237,259.867 337.067 C 260.279 336.655,259.206 336.002,258.200 336.053 L 257.400 336.093 258.200 336.293 M138.976 337.387 C 138.549 337.710,138.380 337.975,138.600 337.975 C 138.820 337.975,139.349 337.710,139.776 337.387 C 140.204 337.064,140.373 336.800,140.153 336.800 C 139.933 336.800,139.404 337.064,138.976 337.387 M282.615 347.624 C 282.896 348.079,284.000 348.127,284.000 347.685 C 284.000 347.512,283.636 347.343,283.191 347.309 C 282.747 347.276,282.487 347.418,282.615 347.624 M104.800 353.000 C 104.392 353.491,104.420 353.600,104.951 353.600 C 105.308 353.600,105.600 353.330,105.600 353.000 C 105.600 352.670,105.532 352.400,105.449 352.400 C 105.366 352.400,105.074 352.670,104.800 353.000 M302.800 356.773 C 302.800 357.223,304.363 357.770,304.697 357.437 C 304.827 357.306,304.633 357.200,304.267 357.200 C 303.900 357.200,303.600 357.020,303.600 356.800 C 303.600 356.580,303.420 356.400,303.200 356.400 C 302.980 356.400,302.800 356.568,302.800 356.773 M94.600 357.600 C 94.736 357.820,94.627 358.000,94.357 358.000 C 94.087 358.000,93.961 358.094,94.076 358.209 C 94.417 358.550,95.615 357.949,95.374 357.558 C 95.252 357.361,94.973 357.200,94.753 357.200 C 94.533 357.200,94.464 357.380,94.600 357.600 M305.200 357.991 C 305.200 358.165,305.645 358.392,306.188 358.496 C 306.731 358.599,307.094 358.552,306.994 358.390 C 306.728 357.960,305.200 357.620,305.200 357.991 " stroke="none" fill="#f84434" fill-rule="evenodd"></path><path id="path3" d="M119.000 41.600 C 117.806 41.904,117.807 41.906,119.300 41.953 C 120.125 41.979,120.800 41.820,120.800 41.600 C 120.800 41.159,120.732 41.159,119.000 41.600 M279.552 41.712 C 279.745 41.905,280.419 41.998,281.051 41.919 C 282.109 41.787,282.081 41.759,280.700 41.568 C 279.840 41.449,279.350 41.510,279.552 41.712 M115.211 42.319 C 114.197 42.483,112.296 43.600,113.031 43.600 C 113.256 43.600,113.611 43.433,113.820 43.229 C 114.029 43.024,114.830 42.799,115.600 42.729 C 116.370 42.658,116.820 42.501,116.600 42.379 C 116.380 42.258,115.755 42.231,115.211 42.319 M287.400 43.600 C 288.501 44.073,288.892 44.073,288.600 43.600 C 288.464 43.380,287.958 43.213,287.476 43.228 C 286.631 43.255,286.629 43.269,287.400 43.600 M289.776 44.613 C 290.204 44.936,290.834 45.199,291.176 45.198 C 291.519 45.196,291.284 44.926,290.654 44.598 C 289.204 43.841,288.766 43.849,289.776 44.613 M108.584 45.227 C 108.148 45.932,108.607 46.030,109.429 45.409 C 110.106 44.897,110.117 44.824,109.524 44.813 C 109.152 44.806,108.729 44.992,108.584 45.227 M292.088 46.065 C 292.174 46.321,292.559 46.576,292.944 46.633 C 293.507 46.716,293.552 46.624,293.173 46.168 C 292.606 45.484,291.871 45.414,292.088 46.065 M294.600 47.683 C 295.040 47.935,295.619 48.425,295.887 48.771 C 296.270 49.265,296.377 49.281,296.387 48.844 C 296.403 48.176,295.236 47.226,294.400 47.225 C 293.983 47.224,294.044 47.364,294.600 47.683 M302.276 55.169 C 302.531 56.146,303.048 56.569,303.363 56.060 C 303.483 55.866,303.238 55.396,302.818 55.017 C 302.089 54.357,302.065 54.364,302.276 55.169 M93.641 61.252 C 93.350 61.909,93.222 62.556,93.356 62.690 C 93.490 62.824,93.600 62.693,93.600 62.398 C 93.600 62.104,93.882 61.552,94.226 61.171 C 94.570 60.791,94.699 60.385,94.511 60.269 C 94.323 60.153,93.932 60.595,93.641 61.252 M91.515 69.200 C 91.418 69.860,91.487 70.400,91.669 70.400 C 91.851 70.400,92.000 69.860,92.000 69.200 C 92.000 68.540,91.930 68.000,91.845 68.000 C 91.760 68.000,91.612 68.540,91.515 69.200 M201.200 310.000 C 201.200 310.220,201.470 310.400,201.800 310.400 C 202.130 310.400,202.400 310.220,202.400 310.000 C 202.400 309.780,202.130 309.600,201.800 309.600 C 201.470 309.600,201.200 309.780,201.200 310.000 M226.624 321.787 C 227.051 322.110,227.580 322.375,227.800 322.375 C 228.020 322.375,227.851 322.110,227.424 321.787 C 226.996 321.464,226.467 321.200,226.247 321.200 C 226.027 321.200,226.196 321.464,226.624 321.787 M169.376 323.422 C 168.612 324.034,168.613 324.038,169.400 323.676 C 169.840 323.474,170.470 323.208,170.800 323.086 C 171.318 322.893,171.315 322.859,170.776 322.832 C 170.434 322.814,169.804 323.080,169.376 323.422 M230.800 323.522 C 230.800 323.956,232.823 324.910,233.118 324.615 C 233.237 324.497,233.113 324.400,232.843 324.400 C 232.564 324.400,232.477 324.185,232.641 323.900 C 232.799 323.625,232.786 323.529,232.612 323.686 C 232.437 323.843,231.958 323.792,231.547 323.572 C 231.136 323.352,230.800 323.329,230.800 323.522 M242.000 328.800 C 242.000 329.020,242.405 329.197,242.900 329.194 C 243.628 329.189,243.685 329.114,243.200 328.800 C 242.424 328.299,242.000 328.299,242.000 328.800 M258.200 336.293 C 258.640 336.403,259.125 336.692,259.278 336.935 C 259.431 337.178,259.696 337.237,259.867 337.067 C 260.279 336.655,259.206 336.002,258.200 336.053 L 257.400 336.093 258.200 336.293 M138.976 337.387 C 138.549 337.710,138.380 337.975,138.600 337.975 C 138.820 337.975,139.349 337.710,139.776 337.387 C 140.204 337.064,140.373 336.800,140.153 336.800 C 139.933 336.800,139.404 337.064,138.976 337.387 M282.615 347.624 C 282.896 348.079,284.000 348.127,284.000 347.685 C 284.000 347.512,283.636 347.343,283.191 347.309 C 282.747 347.276,282.487 347.418,282.615 347.624 M104.800 353.000 C 104.392 353.491,104.420 353.600,104.951 353.600 C 105.308 353.600,105.600 353.330,105.600 353.000 C 105.600 352.670,105.532 352.400,105.449 352.400 C 105.366 352.400,105.074 352.670,104.800 353.000 M302.800 356.773 C 302.800 357.223,304.363 357.770,304.697 357.437 C 304.827 357.306,304.633 357.200,304.267 357.200 C 303.900 357.200,303.600 357.020,303.600 356.800 C 303.600 356.580,303.420 356.400,303.200 356.400 C 302.980 356.400,302.800 356.568,302.800 356.773 M94.600 357.600 C 94.736 357.820,94.627 358.000,94.357 358.000 C 94.087 358.000,93.961 358.094,94.076 358.209 C 94.417 358.550,95.615 357.949,95.374 357.558 C 95.252 357.361,94.973 357.200,94.753 357.200 C 94.533 357.200,94.464 357.380,94.600 357.600 M305.200 357.991 C 305.200 358.165,305.645 358.392,306.188 358.496 C 306.731 358.599,307.094 358.552,306.994 358.390 C 306.728 357.960,305.200 357.620,305.200 357.991 " stroke="none" fill="#f84434" fill-rule="evenodd"></path><path id="path4" d="M119.000 41.600 C 117.806 41.904,117.807 41.906,119.300 41.953 C 120.125 41.979,120.800 41.820,120.800 41.600 C 120.800 41.159,120.732 41.159,119.000 41.600 M279.552 41.712 C 279.745 41.905,280.419 41.998,281.051 41.919 C 282.109 41.787,282.081 41.759,280.700 41.568 C 279.840 41.449,279.350 41.510,279.552 41.712 M115.211 42.319 C 114.197 42.483,112.296 43.600,113.031 43.600 C 113.256 43.600,113.611 43.433,113.820 43.229 C 114.029 43.024,114.830 42.799,115.600 42.729 C 116.370 42.658,116.820 42.501,116.600 42.379 C 116.380 42.258,115.755 42.231,115.211 42.319 M287.400 43.600 C 288.501 44.073,288.892 44.073,288.600 43.600 C 288.464 43.380,287.958 43.213,287.476 43.228 C 286.631 43.255,286.629 43.269,287.400 43.600 M289.776 44.613 C 290.204 44.936,290.834 45.199,291.176 45.198 C 291.519 45.196,291.284 44.926,290.654 44.598 C 289.204 43.841,288.766 43.849,289.776 44.613 M108.584 45.227 C 108.148 45.932,108.607 46.030,109.429 45.409 C 110.106 44.897,110.117 44.824,109.524 44.813 C 109.152 44.806,108.729 44.992,108.584 45.227 M292.088 46.065 C 292.174 46.321,292.559 46.576,292.944 46.633 C 293.507 46.716,293.552 46.624,293.173 46.168 C 292.606 45.484,291.871 45.414,292.088 46.065 M294.600 47.683 C 295.040 47.935,295.619 48.425,295.887 48.771 C 296.270 49.265,296.377 49.281,296.387 48.844 C 296.403 48.176,295.236 47.226,294.400 47.225 C 293.983 47.224,294.044 47.364,294.600 47.683 M302.276 55.169 C 302.531 56.146,303.048 56.569,303.363 56.060 C 303.483 55.866,303.238 55.396,302.818 55.017 C 302.089 54.357,302.065 54.364,302.276 55.169 M93.641 61.252 C 93.350 61.909,93.222 62.556,93.356 62.690 C 93.490 62.824,93.600 62.693,93.600 62.398 C 93.600 62.104,93.882 61.552,94.226 61.171 C 94.570 60.791,94.699 60.385,94.511 60.269 C 94.323 60.153,93.932 60.595,93.641 61.252 M91.515 69.200 C 91.418 69.860,91.487 70.400,91.669 70.400 C 91.851 70.400,92.000 69.860,92.000 69.200 C 92.000 68.540,91.930 68.000,91.845 68.000 C 91.760 68.000,91.612 68.540,91.515 69.200 M201.200 310.000 C 201.200 310.220,201.470 310.400,201.800 310.400 C 202.130 310.400,202.400 310.220,202.400 310.000 C 202.400 309.780,202.130 309.600,201.800 309.600 C 201.470 309.600,201.200 309.780,201.200 310.000 M226.624 321.787 C 227.051 322.110,227.580 322.375,227.800 322.375 C 228.020 322.375,227.851 322.110,227.424 321.787 C 226.996 321.464,226.467 321.200,226.247 321.200 C 226.027 321.200,226.196 321.464,226.624 321.787 M169.376 323.422 C 168.612 324.034,168.613 324.038,169.400 323.676 C 169.840 323.474,170.470 323.208,170.800 323.086 C 171.318 322.893,171.315 322.859,170.776 322.832 C 170.434 322.814,169.804 323.080,169.376 323.422 M230.800 323.522 C 230.800 323.956,232.823 324.910,233.118 324.615 C 233.237 324.497,233.113 324.400,232.843 324.400 C 232.564 324.400,232.477 324.185,232.641 323.900 C 232.799 323.625,232.786 323.529,232.612 323.686 C 232.437 323.843,231.958 323.792,231.547 323.572 C 231.136 323.352,230.800 323.329,230.800 323.522 M242.000 328.800 C 242.000 329.020,242.405 329.197,242.900 329.194 C 243.628 329.189,243.685 329.114,243.200 328.800 C 242.424 328.299,242.000 328.299,242.000 328.800 M258.200 336.293 C 258.640 336.403,259.125 336.692,259.278 336.935 C 259.431 337.178,259.696 337.237,259.867 337.067 C 260.279 336.655,259.206 336.002,258.200 336.053 L 257.400 336.093 258.200 336.293 M138.976 337.387 C 138.549 337.710,138.380 337.975,138.600 337.975 C 138.820 337.975,139.349 337.710,139.776 337.387 C 140.204 337.064,140.373 336.800,140.153 336.800 C 139.933 336.800,139.404 337.064,138.976 337.387 M282.615 347.624 C 282.896 348.079,284.000 348.127,284.000 347.685 C 284.000 347.512,283.636 347.343,283.191 347.309 C 282.747 347.276,282.487 347.418,282.615 347.624 M104.800 353.000 C 104.392 353.491,104.420 353.600,104.951 353.600 C 105.308 353.600,105.600 353.330,105.600 353.000 C 105.600 352.670,105.532 352.400,105.449 352.400 C 105.366 352.400,105.074 352.670,104.800 353.000 M302.800 356.773 C 302.800 357.223,304.363 357.770,304.697 357.437 C 304.827 357.306,304.633 357.200,304.267 357.200 C 303.900 357.200,303.600 357.020,303.600 356.800 C 303.600 356.580,303.420 356.400,303.200 356.400 C 302.980 356.400,302.800 356.568,302.800 356.773 M94.600 357.600 C 94.736 357.820,94.627 358.000,94.357 358.000 C 94.087 358.000,93.961 358.094,94.076 358.209 C 94.417 358.550,95.615 357.949,95.374 357.558 C 95.252 357.361,94.973 357.200,94.753 357.200 C 94.533 357.200,94.464 357.380,94.600 357.600 M305.200 357.991 C 305.200 358.165,305.645 358.392,306.188 358.496 C 306.731 358.599,307.094 358.552,306.994 358.390 C 306.728 357.960,305.200 357.620,305.200 357.991 " stroke="none" fill="#f84434" fill-rule="evenodd"></path></g></svg>