<svg id="svg" version="1.1" xmlns="http://www.w3.org/2000/svg" xmlns:xlink="http://www.w3.org/1999/xlink" width="400" height="400" viewBox="0, 0, 400,400"><g id="svgg"><path id="path0" d="M168.600 62.400 C 168.464 62.620,167.103 62.800,165.576 62.800 C 164.049 62.800,162.800 62.963,162.800 63.161 C 162.800 63.360,161.945 63.623,160.900 63.746 C 157.101 64.192,155.591 64.492,155.374 64.842 C 155.252 65.039,154.521 65.200,153.748 65.200 C 152.975 65.200,152.089 65.454,151.778 65.764 C 151.468 66.075,150.851 66.234,150.407 66.118 C 149.953 65.999,149.600 66.102,149.600 66.353 C 149.600 66.599,149.060 66.800,148.400 66.800 C 147.740 66.800,147.200 66.980,147.200 67.200 C 147.200 67.420,146.761 67.600,146.224 67.600 C 145.687 67.600,145.136 67.780,145.000 68.000 C 144.864 68.220,144.401 68.400,143.971 68.400 C 143.216 68.400,142.826 68.544,140.905 69.538 C 140.413 69.792,139.738 70.000,139.405 70.000 C 139.072 70.000,138.800 70.180,138.800 70.400 C 138.800 70.620,138.440 70.800,138.000 70.800 C 137.560 70.800,137.200 70.980,137.200 71.200 C 137.200 71.420,136.840 71.600,136.400 71.600 C 135.960 71.600,135.600 71.780,135.600 72.000 C 135.600 72.220,135.240 72.400,134.800 72.400 C 134.360 72.400,134.000 72.580,134.000 72.800 C 134.000 73.020,133.640 73.200,133.200 73.200 C 132.760 73.200,132.400 73.380,132.400 73.600 C 132.400 73.820,132.040 74.000,131.600 74.000 C 131.160 74.000,130.800 74.180,130.800 74.400 C 130.800 74.620,130.440 74.800,130.000 74.800 C 129.560 74.800,129.200 74.960,129.200 75.157 C 129.200 75.353,128.716 75.635,128.124 75.783 C 127.533 75.932,126.560 76.401,125.963 76.827 C 125.365 77.252,124.719 77.600,124.527 77.600 C 124.334 77.600,123.917 77.960,123.600 78.400 C 123.283 78.840,122.703 79.200,122.312 79.200 C 121.920 79.200,121.600 79.338,121.600 79.506 C 121.600 79.674,120.880 80.256,120.000 80.800 C 119.120 81.344,118.400 81.926,118.400 82.094 C 118.400 82.262,118.145 82.400,117.834 82.400 C 117.523 82.400,116.758 82.940,116.135 83.600 C 115.512 84.260,114.777 84.800,114.501 84.800 C 114.226 84.800,114.000 84.980,114.000 85.200 C 114.000 85.420,113.808 85.600,113.574 85.600 C 113.340 85.600,112.271 86.500,111.200 87.600 C 110.129 88.700,109.158 89.600,109.043 89.600 C 108.767 89.600,102.000 96.372,102.000 96.649 C 102.000 96.766,101.319 97.524,100.487 98.331 C 99.655 99.139,98.534 100.430,97.996 101.200 C 97.458 101.970,96.608 103.013,96.109 103.518 C 95.609 104.023,95.200 104.600,95.200 104.800 C 95.200 105.000,94.705 105.659,94.100 106.264 C 93.495 106.869,93.049 107.419,93.109 107.487 C 93.169 107.555,92.584 108.602,91.809 109.813 C 91.034 111.025,90.400 112.192,90.400 112.408 C 90.400 112.623,90.220 112.800,90.000 112.800 C 89.780 112.800,89.600 113.081,89.600 113.424 C 89.600 113.767,89.420 113.936,89.200 113.800 C 88.980 113.664,88.800 113.923,88.800 114.376 C 88.800 114.829,88.620 115.200,88.400 115.200 C 88.180 115.200,88.000 115.560,88.000 116.000 C 88.000 116.440,87.820 116.800,87.600 116.800 C 87.380 116.800,87.200 117.160,87.200 117.600 C 87.200 118.040,87.020 118.400,86.800 118.400 C 86.580 118.400,86.400 118.760,86.400 119.200 C 86.400 119.640,86.220 120.000,86.000 120.000 C 85.780 120.000,85.600 120.360,85.600 120.800 C 85.600 121.240,85.420 121.600,85.200 121.600 C 84.980 121.600,84.800 121.960,84.800 122.400 C 84.800 122.840,84.620 123.200,84.400 123.200 C 84.180 123.200,84.000 123.560,84.000 124.000 C 84.000 124.440,83.864 124.800,83.698 124.800 C 83.531 124.800,83.160 125.385,82.871 126.100 C 82.583 126.815,82.179 127.713,81.974 128.095 C 81.768 128.477,81.600 129.062,81.600 129.395 C 81.600 129.728,81.459 130.000,81.287 130.000 C 81.115 130.000,80.934 130.495,80.884 131.100 C 80.834 131.705,80.615 132.260,80.397 132.333 C 80.178 132.407,80.000 132.992,80.000 133.633 C 80.000 134.275,79.820 134.800,79.600 134.800 C 79.380 134.800,79.200 135.340,79.200 136.000 C 79.200 136.660,79.020 137.200,78.800 137.200 C 78.580 137.200,78.400 137.729,78.400 138.376 C 78.400 139.023,78.220 139.664,78.000 139.800 C 77.780 139.936,77.600 140.667,77.600 141.424 C 77.600 142.181,77.455 142.800,77.277 142.800 C 77.099 142.800,76.995 143.384,77.044 144.099 C 77.094 144.813,76.952 145.617,76.729 145.885 C 76.507 146.154,76.278 147.164,76.221 148.130 C 76.164 149.096,75.975 150.117,75.801 150.398 C 75.627 150.680,75.451 152.054,75.411 153.453 C 75.370 154.853,75.211 156.122,75.059 156.275 C 74.696 156.638,74.756 181.526,75.121 181.751 C 75.274 181.846,75.395 182.841,75.390 183.962 C 75.384 185.083,75.519 186.000,75.690 186.000 C 75.860 186.000,75.979 186.135,75.953 186.300 C 75.927 186.465,75.945 186.690,75.993 186.800 C 76.042 186.910,76.145 187.810,76.222 188.800 C 76.473 192.009,76.898 194.413,77.253 194.633 C 77.444 194.751,77.600 195.456,77.600 196.200 C 77.600 196.944,77.780 197.664,78.000 197.800 C 78.220 197.936,78.400 198.465,78.400 198.975 C 78.400 199.485,78.645 200.105,78.944 200.354 C 79.254 200.610,79.406 201.235,79.297 201.803 C 79.186 202.384,79.293 202.800,79.553 202.800 C 79.799 202.800,80.000 203.351,80.000 204.024 C 80.000 204.737,80.167 205.144,80.400 205.000 C 80.633 204.856,80.800 205.263,80.800 205.976 C 80.800 206.649,80.947 207.200,81.128 207.200 C 81.308 207.200,81.700 208.100,82.000 209.200 C 82.300 210.300,82.692 211.200,82.872 211.200 C 83.053 211.200,83.200 211.560,83.200 212.000 C 83.200 212.440,83.380 212.800,83.600 212.800 C 83.820 212.800,84.000 213.160,84.000 213.600 C 84.000 214.040,84.180 214.400,84.400 214.400 C 84.620 214.400,84.800 214.760,84.800 215.200 C 84.800 215.640,84.980 216.000,85.200 216.000 C 85.420 216.000,85.600 216.360,85.600 216.800 C 85.600 217.240,85.780 217.600,86.000 217.600 C 86.220 217.600,86.400 217.960,86.400 218.400 C 86.400 218.840,86.580 219.200,86.800 219.200 C 87.020 219.200,87.200 219.560,87.200 220.000 C 87.200 220.440,87.380 220.800,87.600 220.800 C 87.820 220.800,88.000 221.160,88.000 221.600 C 88.000 222.040,88.180 222.400,88.400 222.400 C 88.620 222.400,88.800 222.670,88.800 223.000 C 88.800 223.330,88.980 223.600,89.200 223.600 C 89.420 223.600,89.600 223.870,89.600 224.200 C 89.600 224.530,89.780 224.800,90.000 224.800 C 90.220 224.800,90.400 224.988,90.400 225.217 C 90.400 225.446,90.583 225.851,90.807 226.117 C 91.836 227.338,93.230 229.500,93.634 230.500 C 93.878 231.105,94.241 231.600,94.439 231.600 C 94.638 231.600,94.801 231.825,94.802 232.100 C 94.803 232.375,95.304 233.140,95.915 233.800 C 96.526 234.460,97.466 235.630,98.004 236.400 C 99.209 238.124,100.645 239.600,101.118 239.600 C 101.312 239.600,101.677 240.050,101.927 240.600 C 102.178 241.150,102.667 241.600,103.015 241.600 C 103.363 241.600,103.541 241.771,103.412 241.981 C 103.172 242.369,106.952 246.265,110.027 248.800 C 110.961 249.570,112.089 250.605,112.535 251.100 C 112.980 251.595,113.491 252.000,113.671 252.000 C 113.851 252.000,114.763 252.720,115.697 253.600 C 116.631 254.480,117.539 255.200,117.715 255.200 C 117.890 255.200,118.420 255.560,118.892 256.000 C 119.364 256.440,120.088 256.800,120.499 256.800 C 120.911 256.800,121.148 256.960,121.027 257.156 C 120.806 257.514,123.119 258.800,123.984 258.800 C 124.239 258.800,124.336 258.980,124.200 259.200 C 124.064 259.420,124.233 259.600,124.576 259.600 C 124.919 259.600,125.560 259.960,126.000 260.400 C 126.440 260.840,126.980 261.200,127.200 261.200 C 127.420 261.200,127.600 261.380,127.600 261.600 C 127.600 261.820,127.960 262.000,128.400 262.000 C 128.840 262.000,129.200 262.180,129.200 262.400 C 129.200 262.620,129.560 262.800,130.000 262.800 C 130.440 262.800,130.800 262.980,130.800 263.200 C 130.800 263.420,131.160 263.600,131.600 263.600 C 132.040 263.600,132.400 263.780,132.400 264.000 C 132.400 264.220,132.861 264.400,133.424 264.400 C 134.004 264.400,134.340 264.573,134.200 264.800 C 134.064 265.020,134.323 265.200,134.776 265.200 C 135.229 265.200,135.600 265.380,135.600 265.600 C 135.600 265.820,135.960 266.000,136.400 266.000 C 136.840 266.000,137.200 266.180,137.200 266.400 C 137.200 266.620,137.560 266.800,138.000 266.800 C 138.440 266.800,138.800 266.947,138.800 267.128 C 138.800 267.308,139.700 267.700,140.800 268.000 C 141.900 268.300,142.800 268.692,142.800 268.872 C 142.800 269.053,142.935 269.179,143.100 269.153 C 144.091 268.996,145.210 269.260,145.000 269.600 C 144.856 269.833,145.263 270.000,145.976 270.000 C 146.649 270.000,147.200 270.180,147.200 270.400 C 147.200 270.620,147.605 270.803,148.100 270.806 C 149.076 270.813,151.815 271.682,152.259 272.126 C 152.410 272.277,153.123 272.400,153.843 272.400 C 154.563 272.400,155.249 272.556,155.367 272.747 C 155.565 273.067,156.780 273.310,161.000 273.876 C 161.880 273.994,162.780 274.224,163.000 274.387 C 164.243 275.310,198.861 275.272,199.432 274.348 C 199.551 274.156,200.368 274.000,201.250 274.000 C 202.131 274.000,203.199 273.815,203.622 273.588 C 204.046 273.361,205.024 273.152,205.796 273.123 C 206.568 273.094,207.200 272.920,207.200 272.735 C 207.200 272.551,207.830 272.400,208.600 272.400 C 209.370 272.400,210.000 272.220,210.000 272.000 C 210.000 271.780,210.630 271.600,211.400 271.600 C 212.170 271.600,212.800 271.420,212.800 271.200 C 212.800 270.980,213.340 270.800,214.000 270.800 C 214.660 270.800,215.200 270.620,215.200 270.400 C 215.200 270.180,215.740 270.000,216.400 270.000 C 217.060 270.000,217.600 269.820,217.600 269.600 C 217.600 269.380,218.140 269.200,218.800 269.200 C 219.460 269.200,220.000 269.020,220.000 268.800 C 220.000 268.580,220.349 268.400,220.776 268.400 C 221.203 268.400,221.664 268.220,221.800 268.000 C 221.936 267.780,222.397 267.600,222.824 267.600 C 223.251 267.600,223.600 267.420,223.600 267.200 C 223.600 266.980,223.960 266.800,224.400 266.800 C 224.840 266.800,225.200 266.620,225.200 266.400 C 225.200 266.180,225.560 266.000,226.000 266.000 C 226.440 266.000,226.800 265.820,226.800 265.600 C 226.800 265.380,227.160 265.200,227.600 265.200 C 228.040 265.200,228.400 265.020,228.400 264.800 C 228.400 264.580,228.760 264.400,229.200 264.400 C 229.640 264.400,230.000 264.220,230.000 264.000 C 230.000 263.780,230.360 263.600,230.800 263.600 C 231.240 263.600,231.600 263.420,231.600 263.200 C 231.600 262.980,231.960 262.800,232.400 262.800 C 232.840 262.800,233.200 262.620,233.200 262.400 C 233.200 262.180,233.560 262.000,234.000 262.000 C 234.440 262.000,234.800 261.820,234.800 261.600 C 234.800 261.380,235.120 261.200,235.512 261.200 C 235.903 261.200,236.483 260.840,236.800 260.400 C 237.117 259.960,237.607 259.600,237.888 259.600 C 238.170 259.600,238.400 259.434,238.400 259.232 C 238.400 259.029,238.949 258.743,239.619 258.596 C 240.290 258.449,241.053 257.984,241.315 257.564 C 241.941 256.563,243.276 256.589,243.917 257.616 C 244.210 258.085,244.633 258.312,244.913 258.151 C 245.181 257.998,245.279 258.007,245.131 258.172 C 244.621 258.740,320.280 334.000,321.362 334.000 C 321.896 334.000,322.424 334.225,322.535 334.500 C 322.696 334.900,322.743 334.900,322.768 334.500 C 322.786 334.225,322.991 334.000,323.224 334.000 C 323.457 334.000,323.536 334.180,323.400 334.400 C 323.247 334.648,323.996 334.800,325.376 334.800 C 326.599 334.800,327.600 334.620,327.600 334.400 C 327.600 334.180,327.872 334.000,328.205 334.000 C 329.834 334.000,334.000 330.072,334.000 328.536 C 334.000 328.021,334.152 327.600,334.337 327.600 C 334.522 327.600,334.712 326.430,334.758 325.000 C 334.810 323.393,334.681 322.400,334.421 322.400 C 334.190 322.400,334.000 321.957,334.000 321.415 C 334.000 320.363,318.584 304.400,317.568 304.400 C 317.292 304.400,317.175 304.292,317.307 304.159 C 317.618 303.849,297.098 283.259,296.700 283.481 C 296.535 283.572,296.400 283.446,296.400 283.201 C 296.400 282.562,274.920 261.213,274.600 261.534 C 274.453 261.680,274.393 261.609,274.467 261.377 C 274.626 260.869,268.195 254.400,267.530 254.400 C 267.275 254.400,267.171 254.296,267.299 254.168 C 267.426 254.040,265.386 251.782,262.765 249.149 C 256.959 243.316,257.012 244.482,262.300 238.933 C 263.455 237.721,264.400 236.565,264.400 236.365 C 264.400 236.164,264.580 236.000,264.800 236.000 C 265.020 236.000,265.200 235.802,265.200 235.560 C 265.200 235.319,265.740 234.617,266.400 234.000 C 267.060 233.383,267.600 232.631,267.600 232.328 C 267.600 232.025,267.960 231.517,268.400 231.200 C 268.840 230.883,269.200 230.343,269.200 230.000 C 269.200 229.657,269.560 229.117,270.000 228.800 C 270.440 228.483,270.800 227.943,270.800 227.600 C 270.800 227.257,271.160 226.717,271.600 226.400 C 272.040 226.083,272.400 225.666,272.400 225.473 C 272.400 225.281,272.771 224.602,273.225 223.964 C 273.679 223.327,273.921 222.596,273.763 222.341 C 273.592 222.063,273.650 221.984,273.909 222.144 C 274.309 222.391,274.800 221.474,275.054 220.007 C 275.110 219.681,275.346 219.351,275.578 219.274 C 275.810 219.197,276.000 218.788,276.000 218.367 C 276.000 217.945,276.180 217.600,276.400 217.600 C 276.620 217.600,276.800 217.240,276.800 216.800 C 276.800 216.360,276.980 216.000,277.200 216.000 C 277.420 216.000,277.600 215.640,277.600 215.200 C 277.600 214.760,277.780 214.400,278.000 214.400 C 278.220 214.400,278.400 214.040,278.400 213.600 C 278.400 213.160,278.580 212.800,278.800 212.800 C 279.020 212.800,279.200 212.535,279.200 212.212 C 279.200 211.889,279.529 211.034,279.931 210.312 C 280.333 209.590,280.913 208.145,281.218 207.100 C 281.524 206.055,281.936 205.200,282.134 205.200 C 282.332 205.200,282.398 204.837,282.282 204.393 C 282.166 203.949,282.325 203.332,282.636 203.022 C 282.946 202.711,283.200 201.994,283.200 201.429 C 283.200 200.863,283.380 200.400,283.600 200.400 C 283.820 200.400,284.000 199.860,284.000 199.200 C 284.000 198.540,284.180 198.000,284.400 198.000 C 284.620 198.000,284.800 197.280,284.800 196.400 C 284.800 195.520,284.980 194.800,285.200 194.800 C 285.420 194.800,285.600 194.091,285.600 193.224 C 285.600 192.357,285.780 191.536,286.000 191.400 C 286.220 191.264,286.400 190.274,286.400 189.200 C 286.400 188.126,286.580 187.136,286.800 187.000 C 287.020 186.864,287.200 185.593,287.200 184.176 C 287.200 182.704,287.374 181.600,287.605 181.600 C 287.870 181.600,288.003 177.186,287.988 168.800 C 287.975 160.916,287.820 156.000,287.583 156.000 C 287.373 156.000,287.200 154.740,287.200 153.200 C 287.200 151.600,287.029 150.400,286.800 150.400 C 286.580 150.400,286.400 149.410,286.400 148.200 C 286.400 146.990,286.220 146.000,286.000 146.000 C 285.780 146.000,285.600 145.280,285.600 144.400 C 285.600 143.520,285.420 142.800,285.200 142.800 C 284.980 142.800,284.800 142.080,284.800 141.200 C 284.800 140.320,284.620 139.600,284.400 139.600 C 284.180 139.600,284.000 139.060,284.000 138.400 C 284.000 137.740,283.820 137.200,283.600 137.200 C 283.380 137.200,283.200 136.660,283.200 136.000 C 283.200 135.340,283.020 134.800,282.800 134.800 C 282.580 134.800,282.400 134.260,282.400 133.600 C 282.400 132.940,282.220 132.400,282.000 132.400 C 281.780 132.400,281.600 132.038,281.600 131.595 C 281.600 131.152,281.441 130.477,281.247 130.095 C 280.904 129.422,280.659 128.850,279.536 126.100 C 279.244 125.385,278.869 124.800,278.702 124.800 C 278.536 124.800,278.400 124.440,278.400 124.000 C 278.400 123.560,278.220 123.200,278.000 123.200 C 277.780 123.200,277.600 122.840,277.600 122.400 C 277.600 121.960,277.420 121.600,277.200 121.600 C 276.980 121.600,276.800 121.240,276.800 120.800 C 276.800 120.360,276.620 120.000,276.400 120.000 C 276.180 120.000,276.000 119.640,276.000 119.200 C 276.000 118.760,275.840 118.400,275.645 118.400 C 275.449 118.400,275.174 117.788,275.034 117.040 C 274.894 116.292,274.514 115.460,274.189 115.191 C 273.865 114.922,273.600 114.482,273.600 114.212 C 273.600 113.943,273.240 113.307,272.800 112.800 C 272.360 112.293,272.000 111.753,272.000 111.600 C 272.000 111.447,271.685 110.950,271.300 110.495 C 270.915 110.040,270.285 109.290,269.900 108.829 C 269.515 108.368,269.200 107.763,269.200 107.484 C 269.200 107.205,268.840 106.717,268.400 106.400 C 267.960 106.083,267.600 105.575,267.600 105.272 C 267.600 104.969,267.060 104.217,266.400 103.600 C 265.740 102.983,265.200 102.297,265.200 102.074 C 265.200 101.852,264.120 100.573,262.800 99.232 C 261.480 97.892,260.400 96.708,260.400 96.602 C 260.400 96.417,257.602 93.662,251.264 87.606 C 249.649 86.063,248.113 84.800,247.852 84.800 C 247.591 84.800,247.117 84.440,246.800 84.000 C 246.483 83.560,245.993 83.200,245.712 83.200 C 245.430 83.200,245.200 83.020,245.200 82.800 C 245.200 82.580,244.970 82.400,244.688 82.400 C 244.407 82.400,243.917 82.040,243.600 81.600 C 243.283 81.160,242.746 80.800,242.408 80.800 C 242.069 80.800,241.568 80.440,241.293 80.000 C 241.018 79.560,240.553 79.200,240.259 79.200 C 239.965 79.200,239.398 78.840,239.000 78.400 C 238.602 77.960,238.034 77.600,237.738 77.600 C 237.442 77.600,237.200 77.409,237.200 77.176 C 237.200 76.943,237.020 76.864,236.800 77.000 C 236.580 77.136,236.400 77.057,236.400 76.824 C 236.400 76.591,236.117 76.400,235.771 76.400 C 235.426 76.400,234.871 76.128,234.539 75.796 C 234.207 75.464,233.770 75.295,233.568 75.420 C 233.365 75.545,233.200 75.457,233.200 75.224 C 233.200 74.991,232.840 74.800,232.400 74.800 C 231.960 74.800,231.600 74.620,231.600 74.400 C 231.600 74.180,231.240 74.000,230.800 74.000 C 230.360 74.000,230.000 73.820,230.000 73.600 C 230.000 73.380,229.640 73.200,229.200 73.200 C 228.760 73.200,228.400 73.020,228.400 72.800 C 228.400 72.580,228.040 72.400,227.600 72.400 C 227.160 72.400,226.800 72.220,226.800 72.000 C 226.800 71.780,226.440 71.600,226.000 71.600 C 225.560 71.600,225.199 71.465,225.197 71.300 C 225.193 70.889,223.209 70.000,222.297 70.000 C 221.888 70.000,221.664 69.820,221.800 69.600 C 221.940 69.373,221.604 69.200,221.024 69.200 C 220.461 69.200,220.000 69.020,220.000 68.800 C 220.000 68.580,219.460 68.400,218.800 68.400 C 218.140 68.400,217.600 68.220,217.600 68.000 C 217.600 67.780,217.060 67.600,216.400 67.600 C 215.740 67.600,215.200 67.420,215.200 67.200 C 215.200 66.980,214.660 66.800,214.000 66.800 C 213.340 66.800,212.800 66.620,212.800 66.400 C 212.800 66.180,212.170 66.000,211.400 66.000 C 210.630 66.000,210.000 65.820,210.000 65.600 C 210.000 65.380,209.370 65.200,208.600 65.200 C 207.830 65.200,207.200 65.020,207.200 64.800 C 207.200 64.580,206.480 64.400,205.600 64.400 C 204.720 64.400,204.000 64.220,204.000 64.000 C 204.000 63.780,203.010 63.600,201.800 63.600 C 200.590 63.600,199.600 63.446,199.600 63.258 C 199.600 63.070,198.387 62.883,196.904 62.842 C 195.421 62.801,194.035 62.595,193.824 62.384 C 193.295 61.855,168.927 61.870,168.600 62.400 M179.200 75.600 C 179.200 76.177,180.690 76.093,180.967 75.500 C 181.153 75.100,181.247 75.100,181.433 75.500 C 181.562 75.775,181.997 76.000,182.400 76.000 C 182.803 76.000,183.238 75.775,183.367 75.500 C 183.553 75.100,183.647 75.100,183.833 75.500 C 183.999 75.855,185.331 76.000,188.433 76.000 C 191.078 76.000,192.800 76.158,192.800 76.400 C 192.800 76.626,193.933 76.800,195.400 76.800 C 196.867 76.800,198.000 76.974,198.000 77.200 C 198.000 77.420,198.709 77.600,199.576 77.600 C 200.443 77.600,201.264 77.780,201.400 78.000 C 201.536 78.220,202.447 78.400,203.424 78.400 C 204.401 78.400,205.200 78.580,205.200 78.800 C 205.200 79.020,205.740 79.200,206.400 79.200 C 207.076 79.200,207.614 79.418,207.632 79.700 C 207.653 80.039,207.723 80.054,207.850 79.746 C 208.054 79.249,209.991 79.929,209.997 80.500 C 209.999 80.665,210.540 80.800,211.200 80.800 C 211.860 80.800,212.400 80.980,212.400 81.200 C 212.400 81.420,212.850 81.600,213.400 81.600 C 213.950 81.600,214.400 81.799,214.400 82.043 C 214.400 82.286,214.657 82.387,214.971 82.267 C 215.285 82.146,215.757 82.307,216.020 82.624 C 216.283 82.941,216.926 83.200,217.449 83.200 C 217.972 83.200,218.400 83.380,218.400 83.600 C 218.400 83.820,218.760 84.000,219.200 84.000 C 219.640 84.000,220.000 84.180,220.000 84.400 C 220.000 84.620,220.360 84.800,220.800 84.800 C 221.240 84.800,221.600 84.980,221.600 85.200 C 221.600 85.420,221.960 85.600,222.400 85.600 C 222.840 85.600,223.200 85.780,223.200 86.000 C 223.200 86.220,223.560 86.400,224.000 86.400 C 224.440 86.400,224.800 86.580,224.800 86.800 C 224.800 87.020,225.160 87.200,225.600 87.200 C 226.040 87.200,226.400 87.399,226.400 87.643 C 226.400 87.886,226.670 87.982,227.000 87.855 C 227.351 87.721,227.600 87.850,227.600 88.167 C 227.600 88.465,228.242 89.013,229.026 89.386 C 229.810 89.758,231.232 90.588,232.184 91.231 C 233.137 91.874,234.075 92.400,234.270 92.400 C 234.464 92.400,234.883 92.760,235.200 93.200 C 235.517 93.640,236.013 94.000,236.302 94.000 C 236.590 94.000,237.461 94.634,238.236 95.409 C 239.011 96.185,239.843 96.697,240.085 96.548 C 240.348 96.385,240.410 96.461,240.238 96.738 C 240.081 96.992,240.134 97.200,240.356 97.200 C 240.743 97.200,244.115 100.486,249.540 106.148 C 250.937 107.607,252.242 108.800,252.440 108.800 C 252.638 108.800,252.800 109.048,252.800 109.352 C 252.800 109.655,253.520 110.645,254.400 111.552 C 255.280 112.459,256.000 113.431,256.000 113.712 C 256.000 113.993,256.360 114.483,256.800 114.800 C 257.240 115.117,257.600 115.524,257.600 115.704 C 257.600 115.884,258.230 116.967,259.000 118.110 C 259.770 119.254,260.400 120.339,260.400 120.523 C 260.400 120.706,260.940 121.641,261.600 122.600 C 262.260 123.559,262.800 124.537,262.800 124.772 C 262.800 125.007,262.980 125.200,263.200 125.200 C 263.420 125.200,263.600 125.560,263.600 126.000 C 263.600 126.440,263.780 126.800,264.000 126.800 C 264.220 126.800,264.400 127.171,264.400 127.624 C 264.400 128.077,264.580 128.336,264.800 128.200 C 265.027 128.060,265.200 128.396,265.200 128.976 C 265.200 129.539,265.380 130.000,265.600 130.000 C 265.820 130.000,266.000 130.360,266.000 130.800 C 266.000 131.240,266.180 131.600,266.400 131.600 C 266.620 131.600,266.800 132.039,266.800 132.576 C 266.800 133.113,266.980 133.664,267.200 133.800 C 267.420 133.936,267.600 134.397,267.600 134.824 C 267.600 135.251,267.780 135.600,268.000 135.600 C 268.220 135.600,268.400 136.061,268.400 136.624 C 268.400 137.187,268.543 137.559,268.717 137.451 C 268.891 137.344,269.077 137.821,269.130 138.512 C 269.182 139.203,269.399 139.876,269.611 140.007 C 269.823 140.138,270.036 140.730,270.085 141.322 C 270.134 141.915,270.315 142.400,270.487 142.400 C 270.659 142.400,270.800 143.019,270.800 143.776 C 270.800 144.533,270.980 145.264,271.200 145.400 C 271.420 145.536,271.600 146.256,271.600 147.000 C 271.600 147.744,271.780 148.464,272.000 148.600 C 272.220 148.736,272.400 149.647,272.400 150.624 C 272.400 151.601,272.580 152.400,272.800 152.400 C 273.022 152.400,273.200 153.467,273.200 154.800 C 273.200 156.133,273.378 157.200,273.600 157.200 C 273.850 157.200,274.000 159.541,274.000 163.424 C 274.000 168.286,274.109 169.585,274.500 169.365 C 274.900 169.139,274.900 169.190,274.500 169.621 C 274.156 169.992,274.000 171.698,274.000 175.080 C 274.000 178.093,273.845 180.000,273.600 180.000 C 273.378 180.000,273.200 181.059,273.200 182.376 C 273.200 183.683,273.020 184.864,272.800 185.000 C 272.580 185.136,272.400 186.047,272.400 187.024 C 272.400 188.001,272.238 188.800,272.040 188.800 C 271.842 188.800,271.584 189.565,271.466 190.500 C 271.110 193.325,270.728 194.800,270.355 194.800 C 270.160 194.800,270.000 195.340,270.000 196.000 C 270.000 196.660,269.820 197.200,269.600 197.200 C 269.380 197.200,269.200 197.729,269.200 198.376 C 269.200 199.023,269.020 199.664,268.800 199.800 C 268.580 199.936,268.400 200.487,268.400 201.024 C 268.400 201.561,268.220 202.000,268.000 202.000 C 267.780 202.000,267.600 202.360,267.600 202.800 C 267.600 203.240,267.420 203.600,267.200 203.600 C 266.980 203.600,266.800 204.140,266.800 204.800 C 266.800 205.460,266.620 206.000,266.400 206.000 C 266.180 206.000,266.000 206.360,266.000 206.800 C 266.000 207.240,265.820 207.600,265.600 207.600 C 265.380 207.600,265.200 207.960,265.200 208.400 C 265.200 208.840,265.054 209.200,264.875 209.200 C 264.696 209.200,264.302 209.830,264.000 210.600 C 263.698 211.370,263.304 212.000,263.125 212.000 C 262.946 212.000,262.800 212.283,262.800 212.628 C 262.800 212.973,262.260 214.041,261.600 215.000 C 260.940 215.959,260.400 216.937,260.400 217.172 C 260.400 217.407,260.255 217.600,260.077 217.600 C 259.899 217.600,259.436 218.320,259.048 219.200 C 258.660 220.080,258.175 220.800,257.971 220.800 C 257.767 220.800,257.600 221.120,257.600 221.512 C 257.600 221.903,257.250 222.476,256.821 222.785 C 256.393 223.093,256.130 223.486,256.235 223.657 C 256.341 223.829,255.882 224.456,255.214 225.051 C 254.546 225.645,254.000 226.372,254.000 226.666 C 254.000 226.960,253.730 227.200,253.400 227.200 C 253.070 227.200,252.800 227.388,252.800 227.617 C 252.800 227.847,251.363 229.489,249.607 231.266 C 247.851 233.044,246.510 234.654,246.628 234.845 C 246.745 235.035,246.533 235.072,246.155 234.927 C 245.689 234.749,245.562 234.815,245.758 235.132 C 245.917 235.389,245.848 235.600,245.605 235.600 C 245.362 235.600,244.714 236.050,244.164 236.600 C 243.614 237.150,243.268 237.600,243.395 237.600 C 243.522 237.600,242.997 238.230,242.227 239.000 C 241.457 239.770,240.626 240.400,240.380 240.400 C 240.134 240.400,239.321 241.030,238.574 241.800 C 237.826 242.570,237.014 243.200,236.770 243.200 C 236.326 243.200,234.747 244.295,233.021 245.800 C 232.516 246.240,231.855 246.658,231.552 246.730 C 231.248 246.801,230.595 247.238,230.100 247.700 C 229.605 248.162,229.197 248.373,229.194 248.170 C 229.191 247.966,229.056 247.980,228.894 248.200 C 228.528 248.698,226.437 249.974,225.500 250.271 C 225.115 250.393,224.800 250.652,224.800 250.847 C 224.800 251.041,224.440 251.200,224.000 251.200 C 223.560 251.200,223.200 251.380,223.200 251.600 C 223.200 251.820,222.840 252.000,222.400 252.000 C 221.960 252.000,221.600 252.180,221.600 252.400 C 221.600 252.620,221.240 252.800,220.800 252.800 C 220.360 252.800,220.000 252.980,220.000 253.200 C 220.000 253.420,219.640 253.600,219.200 253.600 C 218.760 253.600,218.400 253.780,218.400 254.000 C 218.400 254.220,218.130 254.400,217.800 254.400 C 217.470 254.400,217.200 254.580,217.200 254.800 C 217.200 255.020,217.009 255.200,216.776 255.200 C 216.543 255.200,216.464 255.020,216.600 254.800 C 216.736 254.580,216.657 254.400,216.424 254.400 C 216.191 254.400,216.000 254.580,216.000 254.800 C 216.000 255.020,215.640 255.200,215.200 255.200 C 214.760 255.200,214.400 255.380,214.400 255.600 C 214.400 255.820,213.860 256.000,213.200 256.000 C 212.540 256.000,212.000 256.180,212.000 256.400 C 212.000 256.620,211.561 256.800,211.024 256.800 C 210.487 256.800,209.936 256.980,209.800 257.200 C 209.664 257.420,209.113 257.600,208.576 257.600 C 208.039 257.600,207.600 257.780,207.600 258.000 C 207.600 258.220,206.970 258.400,206.200 258.400 C 205.430 258.400,204.800 258.571,204.800 258.781 C 204.800 258.991,204.280 259.096,203.644 259.016 C 203.008 258.935,202.026 259.109,201.461 259.402 C 200.897 259.695,200.112 259.884,199.718 259.822 C 199.323 259.761,198.550 259.880,198.000 260.086 C 197.450 260.293,196.190 260.463,195.201 260.464 C 194.211 260.466,193.191 260.642,192.933 260.856 C 192.675 261.070,190.379 261.250,187.832 261.257 C 184.909 261.264,183.200 261.422,183.200 261.683 C 183.200 261.957,183.020 261.949,182.670 261.658 C 182.285 261.338,182.018 261.342,181.687 261.673 C 181.349 262.011,181.057 261.983,180.540 261.563 C 179.936 261.073,179.892 261.078,180.200 261.600 C 180.488 262.089,180.445 262.112,179.966 261.725 C 179.622 261.447,177.390 261.166,174.589 261.048 C 168.901 260.809,165.151 260.429,164.600 260.036 C 164.380 259.879,163.570 259.768,162.800 259.789 C 162.030 259.810,161.301 259.688,161.180 259.519 C 161.059 259.350,160.295 259.164,159.481 259.106 C 158.667 259.048,158.001 258.865,158.001 258.700 C 158.000 258.535,157.370 258.400,156.600 258.400 C 155.830 258.400,155.200 258.220,155.200 258.000 C 155.200 257.780,154.660 257.600,154.000 257.600 C 153.340 257.600,152.800 257.420,152.800 257.200 C 152.800 256.980,152.159 256.800,151.376 256.800 C 150.529 256.800,150.053 256.638,150.200 256.400 C 150.344 256.167,149.937 256.000,149.224 256.000 C 148.551 256.000,148.000 255.820,148.000 255.600 C 148.000 255.380,147.640 255.200,147.200 255.200 C 146.760 255.200,146.400 255.020,146.400 254.800 C 146.400 254.580,145.860 254.400,145.200 254.400 C 144.540 254.400,144.000 254.220,144.000 254.000 C 144.000 253.780,143.640 253.600,143.200 253.600 C 142.760 253.600,142.400 253.454,142.400 253.275 C 142.400 253.096,141.770 252.702,141.000 252.400 C 140.230 252.098,139.600 251.704,139.600 251.525 C 139.600 251.346,139.240 251.200,138.800 251.200 C 138.360 251.200,138.000 251.020,138.000 250.800 C 138.000 250.580,137.640 250.400,137.200 250.400 C 136.760 250.400,136.400 250.220,136.400 250.000 C 136.400 249.780,135.920 249.600,135.333 249.600 C 134.747 249.600,134.378 249.489,134.514 249.352 C 134.869 248.997,133.774 248.000,133.029 248.000 C 132.683 248.000,132.400 247.820,132.400 247.600 C 132.400 247.380,132.130 247.200,131.800 247.200 C 131.470 247.200,131.200 247.020,131.200 246.800 C 131.200 246.580,130.930 246.400,130.600 246.400 C 130.270 246.400,130.000 246.232,130.000 246.027 C 130.000 245.822,129.662 245.547,129.249 245.416 C 128.836 245.284,127.981 244.733,127.349 244.189 C 126.717 243.646,126.042 243.253,125.849 243.317 C 125.656 243.381,124.830 242.751,124.012 241.917 C 123.194 241.083,122.390 240.400,122.224 240.400 C 122.059 240.400,120.340 238.791,118.403 236.825 C 116.467 234.859,114.774 233.359,114.641 233.492 C 114.509 233.625,114.400 233.513,114.400 233.245 C 114.400 232.976,113.320 231.696,112.000 230.400 C 110.680 229.104,109.600 227.937,109.600 227.805 C 109.600 227.554,109.122 226.936,107.800 225.481 C 107.360 224.996,106.745 224.105,106.432 223.500 C 106.120 222.895,105.737 222.400,105.581 222.400 C 105.425 222.400,105.073 221.860,104.800 221.200 C 104.527 220.540,104.157 220.000,103.978 220.000 C 103.800 220.000,103.539 219.637,103.398 219.194 C 103.257 218.751,102.977 218.490,102.776 218.615 C 102.574 218.740,102.516 218.562,102.647 218.221 C 102.778 217.879,102.686 217.600,102.443 217.600 C 102.199 217.600,102.000 217.322,102.000 216.983 C 102.000 216.644,101.640 215.980,101.200 215.508 C 100.760 215.036,100.400 214.413,100.400 214.125 C 100.400 213.836,100.220 213.600,100.000 213.600 C 99.780 213.600,99.600 213.330,99.600 213.000 C 99.600 212.670,99.420 212.400,99.200 212.400 C 98.980 212.400,98.800 211.950,98.800 211.400 C 98.800 210.850,98.620 210.400,98.400 210.400 C 98.180 210.400,98.000 210.130,98.000 209.800 C 98.000 209.470,97.820 209.200,97.600 209.200 C 97.380 209.200,97.200 208.840,97.200 208.400 C 97.200 207.960,97.020 207.600,96.800 207.600 C 96.580 207.600,96.400 207.240,96.400 206.800 C 96.400 206.360,96.220 206.000,96.000 206.000 C 95.780 206.000,95.600 205.561,95.600 205.024 C 95.600 204.487,95.420 203.936,95.200 203.800 C 94.980 203.664,94.800 203.203,94.800 202.776 C 94.800 202.349,94.620 202.000,94.400 202.000 C 94.180 202.000,94.000 201.460,94.000 200.800 C 94.000 200.140,93.820 199.600,93.600 199.600 C 93.380 199.600,93.200 199.060,93.200 198.400 C 93.200 197.740,93.020 197.200,92.800 197.200 C 92.580 197.200,92.400 196.660,92.400 196.000 C 92.400 195.340,92.245 194.800,92.056 194.800 C 91.742 194.800,91.090 191.577,90.539 187.300 C 90.418 186.365,90.158 185.600,89.960 185.600 C 89.762 185.600,89.600 184.598,89.600 183.374 C 89.600 182.149,89.429 180.828,89.220 180.438 C 89.012 180.048,88.805 177.495,88.762 174.764 C 88.718 172.034,88.538 169.407,88.361 168.927 C 88.151 168.355,88.206 167.985,88.520 167.857 C 88.865 167.716,88.831 167.542,88.400 167.237 C 88.054 166.992,87.996 166.810,88.263 166.806 C 88.584 166.802,88.740 165.314,88.773 161.917 C 88.802 159.054,88.992 156.929,89.233 156.779 C 89.460 156.639,89.603 155.608,89.552 154.488 C 89.501 153.368,89.650 152.215,89.882 151.926 C 90.320 151.382,90.458 150.725,91.234 145.500 C 91.487 143.795,91.853 142.400,92.047 142.400 C 92.241 142.400,92.400 141.860,92.400 141.200 C 92.400 140.540,92.580 140.000,92.800 140.000 C 93.020 140.000,93.200 139.550,93.200 139.000 C 93.200 138.450,93.341 138.000,93.513 138.000 C 93.685 138.000,93.866 137.505,93.916 136.900 C 93.966 136.295,94.185 135.740,94.403 135.667 C 94.622 135.593,94.800 135.188,94.800 134.767 C 94.800 134.345,94.980 134.000,95.200 134.000 C 95.420 134.000,95.600 133.460,95.600 132.800 C 95.600 132.140,95.780 131.600,96.000 131.600 C 96.220 131.600,96.400 131.240,96.400 130.800 C 96.400 130.360,96.580 130.000,96.800 130.000 C 97.020 130.000,97.200 129.640,97.200 129.200 C 97.200 128.760,97.380 128.400,97.600 128.400 C 97.820 128.400,98.000 128.040,98.000 127.600 C 98.000 127.160,98.180 126.800,98.400 126.800 C 98.620 126.800,98.800 126.440,98.800 126.000 C 98.800 125.560,98.980 125.200,99.200 125.200 C 99.420 125.200,99.600 125.033,99.600 124.829 C 99.600 124.294,103.608 117.825,104.038 117.667 C 104.237 117.593,104.400 117.270,104.400 116.948 C 104.400 116.627,104.850 115.914,105.400 115.364 C 105.950 114.814,106.400 114.211,106.400 114.024 C 106.400 113.837,106.940 113.107,107.600 112.400 C 108.260 111.693,108.800 110.814,108.800 110.446 C 108.800 110.078,109.184 109.512,109.653 109.188 C 111.193 108.127,115.161 104.094,114.911 103.844 C 114.777 103.710,114.864 103.600,115.106 103.600 C 115.348 103.600,116.999 102.160,118.776 100.400 C 120.552 98.640,122.185 97.200,122.403 97.200 C 122.621 97.200,122.755 96.983,122.700 96.718 C 122.645 96.453,122.780 96.213,123.000 96.184 C 123.956 96.058,124.787 95.470,125.012 94.763 C 125.145 94.343,125.536 94.000,125.880 94.000 C 126.224 94.000,126.797 93.683,127.153 93.295 C 127.509 92.907,128.790 92.067,130.000 91.427 C 131.210 90.787,132.290 90.159,132.400 90.031 C 132.510 89.904,133.005 89.575,133.500 89.300 C 133.995 89.025,134.805 88.575,135.300 88.300 C 135.795 88.025,136.290 87.699,136.400 87.576 C 136.510 87.452,137.860 86.732,139.400 85.976 C 140.940 85.219,142.260 84.465,142.333 84.300 C 142.407 84.135,142.812 84.000,143.233 84.000 C 143.655 84.000,144.000 83.820,144.000 83.600 C 144.000 83.380,144.540 83.200,145.200 83.200 C 145.860 83.200,146.400 83.020,146.400 82.800 C 146.400 82.580,146.760 82.400,147.200 82.400 C 147.640 82.400,148.000 82.220,148.000 82.000 C 148.000 81.780,148.540 81.600,149.200 81.600 C 149.860 81.600,150.400 81.420,150.400 81.200 C 150.400 80.980,150.925 80.800,151.567 80.800 C 152.208 80.800,152.793 80.622,152.867 80.403 C 152.940 80.185,153.495 79.966,154.100 79.916 C 154.705 79.866,155.200 79.685,155.200 79.513 C 155.200 79.341,155.729 79.200,156.376 79.200 C 157.023 79.200,157.664 79.020,157.800 78.800 C 157.936 78.580,158.656 78.400,159.400 78.400 C 160.144 78.400,160.864 78.220,161.000 78.000 C 161.136 77.780,161.957 77.600,162.824 77.600 C 163.691 77.600,164.400 77.420,164.400 77.200 C 164.400 76.975,165.525 76.800,166.976 76.800 C 168.393 76.800,169.664 76.620,169.800 76.400 C 169.939 76.175,171.871 76.000,174.224 76.000 C 176.741 76.000,178.400 75.841,178.400 75.600 C 178.400 75.380,178.580 75.200,178.800 75.200 C 179.020 75.200,179.200 75.380,179.200 75.600 " stroke="none" fill="#949494" fill-rule="evenodd"></path><path id="path1" d="" stroke="none" fill="#989494" fill-rule="evenodd"></path><path id="path2" d="" stroke="none" fill="#989494" fill-rule="evenodd"></path><path id="path3" d="" stroke="none" fill="#989494" fill-rule="evenodd"></path><path id="path4" d="" stroke="none" fill="#989494" fill-rule="evenodd"></path></g></svg>